# xmcd CD database file
#
# Track frame offsets:
#	150
#	14076
#	23069
#	30511
#	39937
#	58524
#	75131
#	78938
#	82945
#	109839
#	115165
#	130819
#	143659
#	150065
#	164316
#	179290
#	195423
#	205919
#	215678
#	228540
#
# Disc length: 3177 seconds
#
# Revision: 11
# Processed by: cddbd v1.5.2PL0 Copyright (c) Steve Scherf et al.
# Submitted via: CDex 1.51
#
DISCID=ec0c6714
DTITLE=Various Artist - Chorales d'enfants  {Chants de Noël}  [CD 3-5]
DYEAR=1900
DGENRE=Chants de Noël
TTITLE0=St-Petersburg Children's Choir - Ave Maria  (de Gounod)
TTITLE1=Les petits chanteurs de Noël - Kyrie Eleison
TTITLE2=Maîtrise de la Cathédrale de Strasbourg - Schlaf, schlaf, schlaf
TTITLE3=Chorale du tsar Pierre Le Grand - La polka italienne
TTITLE4=Les petits chanteurs de Noël - Agnus Dei
TTITLE5=St-Petersburg Children's Choir - Halleluja  (from the Oratorio ''Messiah''
TTITLE6=Choeurs d'enfants du théâtre du Bolchoï} - Chtchedrik
TTITLE7=Les petits chanteurs de Noël - Angelic Sanctus
TTITLE8=Les petits chanteurs de Noël - Benedictus
TTITLE9=Les petits chanteurs de Noël - The Priches from ''Le Messie''
TTITLE10=Les petits chanteurs de Noël - Crucificsus
TTITLE11=Choeurs d'enfants du théâtre du Bolchoï - Koliadka
TTITLE12=Les petits chanteurs de Noël - Oratorio de ''La Forêt''
TTITLE13=Choeurs d'enfants du théâtre du Bolchoï - Angel's field  (Les anges dans nos campagnes)
TTITLE14=Les petits chanteurs de Noël - Clémence and Grâce  (Les portes de la clémence)
TTITLE15=Les petits chanteurs de Noël - Alleluia from ''Le Messie'' 
TTITLE16=Les petits chanteurs de Noël - Salvation and Benedictus
TTITLE17=Les petits chanteurs de Noël - Domine Fili Unigenite
TTITLE18=St-Petersburg Children's Choir - Le poisson d'or
TTITLE19=Finchley Children's Music Group with City of Prague Philharmonic - Vois sur ton chemin - Les Choristes
EXTD=
EXTT0=
EXTT1=
EXTT2=
EXTT3=
EXTT4=
EXTT5=
EXTT6=
EXTT7=
EXTT8=
EXTT9=
EXTT10=
EXTT11=
EXTT12=
EXTT13=
EXTT14=
EXTT15=
EXTT16=
EXTT17=
EXTT18=
EXTT19=
PLAYORDER=
